<svg id="visual" viewBox="0 0 900 600" width="900" height="600" xmlns="http://www.w3.org/2000/svg" xmlns:xlink="http://www.w3.org/1999/xlink" version="1.1"><rect x="0" y="0" width="900" height="600" fill="#FFECD1"></rect><g transform="translate(942.0552215882242 630.246340262107)"><path d="M188.4 -338.5C242.8 -294.9 284.7 -241.7 302.2 -183.7C319.7 -125.7 312.8 -62.8 312.4 -0.3C312 62.3 317.9 124.7 296.5 175.9C275.1 227.1 226.3 267.3 172.3 283C118.3 298.7 59.2 290 -7.7 303.3C-74.5 316.5 -149 351.8 -211.6 341.1C-274.3 330.4 -325.1 273.7 -357.7 209.2C-390.2 144.7 -404.6 72.3 -395.5 5.3C-386.4 -61.8 -353.9 -123.7 -307.8 -164.8C-261.7 -205.9 -202.1 -226.4 -148.5 -270.5C-95 -314.5 -47.5 -382.3 9.7 -399.2C67 -416 134 -382.1 188.4 -338.5" fill="#F7C59F"></path></g></svg>